<svg version="1.1" id="Layer_1" xmlns="http://www.w3.org/2000/svg" xmlns:xlink="http://www.w3.org/1999/xlink" x="0px" y="0px"
	 width="100%" viewBox="0 0 512 512" enable-background="new 0 0 512 512" xml:space="preserve">
<path fill="#020100" opacity="1.000000" stroke="none" 
	d="
M283.000000,513.000000 
	C190.022568,513.000000 97.545113,512.979248 5.067797,513.085327 
	C1.793118,513.089050 0.894799,512.632568 0.897299,509.069580 
	C1.015163,341.110626 1.016892,173.151596 0.891560,5.192689 
	C0.888754,1.432075 1.853166,0.913752 5.305367,0.915734 
	C173.097717,1.012080 340.890106,1.011571 508.682465,0.918525 
	C512.101685,0.916629 513.113770,1.386178 513.110840,5.180495 
	C512.982544,173.139420 512.985107,341.098450 513.101318,509.057404 
	C513.103760,512.595459 512.245361,513.092651 508.944366,513.087646 
	C433.796356,512.973755 358.648163,513.000000 283.000000,513.000000 
z"/>
<path fill="#F47412" opacity="1.000000" stroke="none" 
	d="
M189.693237,203.360413 
	C190.880783,193.238159 190.247604,183.416412 190.357803,173.605637 
	C190.477493,162.949921 190.880646,152.261414 190.231812,141.643951 
	C189.675308,132.537323 192.733963,126.473724 201.675842,123.209404 
	C206.055756,121.944885 210.198395,122.736343 214.705170,122.826752 
	C216.355072,123.645844 216.809814,122.806915 217.424896,121.932091 
	C223.068649,113.904945 231.367401,113.702171 239.736481,115.111412 
	C241.962280,115.486206 242.986115,115.200859 244.299210,113.907532 
	C249.438934,108.845207 255.496475,107.293884 262.451050,109.191162 
	C266.234009,110.223183 269.329315,109.791664 273.051178,107.528923 
	C281.807922,102.205132 294.802826,104.868782 299.795044,114.952858 
	C301.124847,117.638969 301.008240,120.639626 300.475830,123.292488 
	C298.797913,131.653137 303.883118,135.695923 309.906372,139.345352 
	C319.540833,145.182755 325.222565,153.287430 324.942841,164.992752 
	C324.779694,171.818390 325.093933,178.656799 324.878693,185.479538 
	C324.405548,200.479462 319.310516,213.707901 308.355469,224.127396 
	C303.690704,228.564087 301.468414,233.084503 301.740723,239.705338 
	C302.281006,252.842514 301.399933,266.042633 302.057556,279.169067 
	C302.591003,289.816650 298.130035,290.782654 289.935394,292.836792 
	C273.484680,296.960541 256.744232,294.884918 240.132233,295.359802 
	C233.083237,295.561340 226.282288,293.109436 219.566406,291.308228 
	C214.543442,289.961029 212.008484,285.576263 212.062836,279.950348 
	C212.188324,266.958771 211.989670,253.963501 212.176102,240.973373 
	C212.228165,237.344971 211.216125,234.604996 208.464783,232.305038 
	C200.277359,225.460907 194.614868,216.818832 190.361862,206.892029 
	C189.057663,205.922546 189.016876,204.845459 189.693237,203.360413 
z"/>
<path fill="#F06D08" opacity="1.000000" stroke="none" 
	d="
M413.551971,320.677338 
	C416.683472,321.609039 417.997711,323.766907 418.136047,326.381195 
	C418.308990,329.650024 420.089844,330.009552 422.764801,329.980591 
	C432.095825,329.879578 441.428741,329.920624 450.760742,329.953644 
	C455.516724,329.970490 458.883698,332.365448 458.498840,335.752106 
	C457.982330,340.296661 454.831726,341.553314 450.622986,341.500580 
	C441.292297,341.383606 431.956787,341.587250 422.628235,341.404022 
	C419.115692,341.335022 417.702148,342.568573 418.111420,346.033691 
	C418.247314,347.184113 418.267639,348.383148 418.107574,349.527344 
	C417.500641,353.865784 419.162415,355.570984 423.651154,355.233246 
	C428.290894,354.884155 432.978180,355.104645 437.643311,355.171967 
	C443.787537,355.260620 445.767822,357.287933 445.736969,363.304443 
	C445.726715,365.303802 445.743530,367.306610 445.632080,369.301331 
	C445.458801,372.402252 445.318237,375.186432 449.530731,375.972473 
	C451.509399,376.341675 452.718933,378.405518 452.790863,380.571106 
	C452.868317,382.901733 451.921051,385.210327 449.671753,385.781677 
	C445.909149,386.737427 445.333405,389.008789 445.424652,392.380646 
	C445.827911,407.281464 445.452759,406.303253 431.556763,406.252045 
	C418.131714,406.202545 418.131927,406.241333 418.131409,419.470673 
	C418.131195,425.136597 418.169769,430.802948 418.116547,436.468353 
	C418.062683,442.201447 416.580658,443.789215 410.754242,444.196655 
	C408.441986,444.358368 406.055420,444.441772 403.791046,444.050140 
	C401.068359,443.579193 399.342407,441.627899 399.298340,438.815704 
	C399.255402,436.077393 400.643158,433.574860 403.431519,433.367523 
	C407.126740,433.092712 407.144257,431.138702 407.049835,428.362915 
	C406.846039,422.370667 406.756897,416.367035 406.890137,410.374054 
	C406.958008,407.323456 405.800476,406.166443 402.833801,406.221375 
	C397.669647,406.316986 392.501648,406.190033 387.336548,406.255341 
	C383.397400,406.305145 380.098419,405.400909 380.260864,400.662018 
	C380.416626,396.116119 383.659546,395.063690 387.591614,395.103973 
	C392.757050,395.156921 397.928375,394.974457 403.087708,395.158295 
	C406.411469,395.276764 406.869568,393.570160 406.888580,390.830872 
	C406.908417,387.965698 406.122009,386.515594 402.943481,386.573944 
	C395.447021,386.711517 387.946228,386.619629 380.447174,386.606476 
	C376.619690,386.599762 373.339600,385.752228 373.124176,381.060364 
	C372.943665,377.129730 375.343719,375.253540 380.635773,375.207397 
	C387.967651,375.143494 395.303802,375.057220 402.631348,375.244904 
	C405.982819,375.330780 406.910858,374.014252 406.915497,370.843201 
	C406.920227,367.606720 405.830933,366.356384 402.551697,366.481537 
	C397.559692,366.672089 392.554871,366.515991 387.555542,366.530365 
	C383.722900,366.541351 380.412262,365.788025 380.201263,361.058228 
	C380.032257,357.269897 382.660461,355.246765 387.780426,355.175476 
	C392.778839,355.105865 397.781799,355.051086 402.777222,355.189880 
	C405.772308,355.273041 406.929810,354.151733 406.875793,351.106750 
	C406.669617,339.478088 408.011536,341.639313 397.451019,341.488007 
	C389.453705,341.373413 381.446014,341.670349 373.457428,341.382660 
	C369.217499,341.229980 368.093445,342.781769 368.113159,346.846832 
	C368.253571,375.842468 368.192200,404.839050 368.176880,433.835358 
	C368.175903,435.662170 368.223267,437.525879 367.895172,439.307434 
	C367.338165,442.332275 365.295288,444.002899 362.243225,443.864227 
	C359.226196,443.727142 357.314575,441.998749 356.964355,438.882599 
	C356.834747,437.729034 356.895508,436.552338 356.895416,435.386169 
	C356.892578,403.223602 356.888916,371.061066 356.896271,338.898499 
	C356.898010,331.342499 358.354919,329.930145 365.979034,329.935150 
	C377.810852,329.942932 389.643250,329.876099 401.474091,329.986023 
	C404.501984,330.014130 406.423676,329.764740 406.631714,325.895233 
	C406.824921,322.302185 409.445801,320.419891 413.551971,320.677338 
z"/>
<path fill="#F06E08" opacity="1.000000" stroke="none" 
	d="
M164.976135,351.801086 
	C179.874985,351.798523 179.859146,351.798096 179.472260,366.131165 
	C179.287949,372.958588 179.163818,379.787750 179.037476,386.616577 
	C178.954239,391.115509 176.802292,393.315552 172.196701,393.231323 
	C166.365921,393.124695 160.515305,393.480072 154.703979,393.128448 
	C150.024612,392.845337 148.299866,394.177368 148.411850,399.175049 
	C148.691650,411.663300 148.283768,424.165436 148.331985,436.661316 
	C148.347519,440.683411 147.367279,443.666565 142.869431,444.031860 
	C139.049393,444.342133 137.051361,441.746735 137.034561,436.553741 
	C136.993057,423.721741 136.894897,410.887604 137.091354,398.058533 
	C137.149170,394.283173 135.815659,393.061249 132.185623,393.163147 
	C125.691452,393.345428 119.187531,393.145905 112.689209,393.227081 
	C108.248161,393.282532 106.202484,391.021606 106.267921,386.798492 
	C106.420166,376.973999 106.654953,367.150360 106.933876,357.328583 
	C107.047783,353.317657 109.623970,351.850159 113.251991,351.819885 
	C119.251007,351.769836 125.259949,351.599152 131.246994,351.870361 
	C135.491806,352.062622 137.497711,351.231506 137.480270,346.235107 
	C137.463501,341.429749 135.568558,340.766602 131.539200,340.942749 
	C125.218552,341.219116 118.875389,340.930939 112.544739,341.045685 
	C108.513603,341.118713 105.296524,339.992615 105.429108,335.434082 
	C105.556953,331.038544 108.776108,329.785645 112.757988,329.823547 
	C119.423393,329.887054 126.091995,329.736572 132.754974,329.877594 
	C135.735199,329.940674 137.450363,329.361542 137.407257,325.838257 
	C137.366257,322.485626 139.624756,320.514404 142.847366,320.558899 
	C145.946014,320.601685 148.487000,322.339752 148.499985,325.724640 
	C148.514771,329.574677 150.553635,329.952179 153.615463,329.876007 
	C159.444565,329.730988 165.280136,329.867340 171.112671,329.831116 
	C175.062225,329.806580 177.689392,331.544250 177.721786,335.601776 
	C177.755997,339.888733 174.834183,341.098907 170.966873,341.038818 
	C164.802307,340.942993 158.627899,341.199432 152.471527,340.955963 
	C148.300797,340.790985 148.429977,343.291321 148.519043,346.118561 
	C148.606812,348.905121 147.860992,352.063904 152.486740,351.835632 
	C156.476517,351.638763 160.483887,351.798889 164.976135,351.801086 
z"/>
<path fill="#F06D08" opacity="1.000000" stroke="none" 
	d="
M283.361359,362.967712 
	C278.417328,360.451752 273.386780,361.981995 268.480408,361.555695 
	C266.495789,361.383240 264.473206,361.644104 262.489410,361.467041 
	C258.842773,361.141510 256.529572,359.205872 256.608582,355.379211 
	C256.685730,351.644714 259.233490,350.146729 262.596252,350.068390 
	C268.090057,349.940369 273.591125,349.930389 279.084625,350.060974 
	C282.073578,350.131989 283.671967,349.471100 283.694946,345.956573 
	C283.718231,342.398163 282.423737,341.195221 279.007751,341.417969 
	C276.531860,341.579407 273.990601,341.518188 271.543091,341.139191 
	C268.443481,340.659241 266.972717,338.404510 267.138763,335.402802 
	C267.302795,332.437012 268.988922,330.437775 272.058594,330.025452 
	C273.533051,329.827393 275.058075,329.864136 276.549438,329.960846 
	C280.568970,330.221466 284.073730,330.324951 284.191467,324.555847 
	C284.246796,321.846069 286.963898,320.340668 289.685822,320.502289 
	C292.630127,320.677032 294.949585,322.465668 294.880493,325.554199 
	C294.788940,329.648468 296.859131,330.097992 300.178375,330.008575 
	C303.950134,329.906921 307.769684,329.430084 311.444519,331.265381 
	C314.476776,332.779755 316.161743,334.751709 315.939117,338.246277 
	C315.801788,340.402802 316.020752,342.581604 315.891937,344.739227 
	C315.721680,347.591156 315.859375,349.892761 319.485229,350.652466 
	C321.729370,351.122711 322.912262,353.123169 322.932404,355.593323 
	C322.954132,358.259644 321.709808,360.411407 319.265442,360.918182 
	C315.873352,361.621399 315.729980,363.675415 315.787964,366.372467 
	C316.132874,382.419159 315.805115,381.311554 300.726532,381.198273 
	C296.978058,381.170166 294.156433,381.228485 294.671417,386.321960 
	C294.961823,389.194244 296.069611,390.044556 298.707245,389.986328 
	C303.202332,389.887085 307.701263,389.970581 312.198578,389.962830 
	C316.101715,389.956085 318.802185,391.581482 318.741852,395.742828 
	C318.683746,399.750641 315.960419,401.007233 312.275330,400.938690 
	C307.613129,400.851929 302.942932,401.057983 298.285767,400.882477 
	C294.744080,400.748962 294.740997,402.888245 294.734711,405.413727 
	C294.728363,407.960907 294.810577,410.075714 298.301605,409.965881 
	C302.960632,409.819305 307.628174,409.931854 312.291992,409.949554 
	C315.837708,409.962982 318.723480,411.087494 318.819641,415.155487 
	C318.917725,419.307037 316.324097,421.038666 312.408386,421.067108 
	C308.910645,421.092529 305.412476,421.059998 301.914734,421.084137 
	C298.370636,421.108551 294.446289,420.063690 293.939850,425.825928 
	C293.747498,428.014526 291.095581,428.933411 288.744690,428.764130 
	C286.384308,428.594147 284.291199,427.404266 283.972168,425.063202 
	C283.442780,421.178406 281.132019,420.846832 278.012390,421.041168 
	C275.192078,421.216919 272.349792,421.129150 269.520416,421.046997 
	C265.946045,420.943237 263.933502,419.143524 263.946716,415.451233 
	C263.960052,411.712219 266.095062,410.054352 269.628601,409.978882 
	C272.958557,409.907776 276.297852,409.799591 279.620026,409.966522 
	C283.387726,410.155853 283.378204,407.828217 283.453705,405.108459 
	C283.533661,402.227417 282.719757,400.710327 279.533112,400.885803 
	C276.378113,401.059509 273.205139,400.879120 270.041077,400.924011 
	C266.285797,400.977264 263.869080,399.552521 263.954010,395.443573 
	C264.037720,391.395752 266.553162,389.989075 270.213440,389.971344 
	C273.378174,389.956024 276.549164,389.831360 279.706146,389.985321 
	C283.550385,390.172791 283.281464,387.601685 283.498383,385.027618 
	C283.743774,382.115326 282.498047,381.115326 279.760925,381.234131 
	C277.433929,381.335083 275.098145,381.217468 272.766479,381.230988 
	C269.027771,381.252686 267.100342,379.032501 267.038849,375.677979 
	C266.976318,372.265289 268.959167,370.100586 272.660553,370.057800 
	C274.159485,370.040466 275.658691,370.046997 277.157776,370.044434 
	C283.667603,370.033417 283.667603,370.033661 283.361359,362.967712 
z"/>
<path fill="#F06D08" opacity="1.000000" stroke="none" 
	d="
M294.000000,443.977478 
	C284.676971,443.980225 275.837952,443.663727 267.036865,444.104584 
	C261.687622,444.372559 257.924805,443.093079 256.006866,437.857422 
	C255.668732,436.934418 255.154297,436.052399 253.963425,435.813416 
	C252.402527,436.605469 253.209503,438.124451 253.017685,439.306152 
	C252.508179,442.445007 250.608749,444.044556 247.567368,444.028992 
	C244.529312,444.013489 242.565094,442.358612 242.118286,439.267944 
	C241.929214,437.960175 241.998291,436.610657 242.001663,435.280243 
	C242.040115,420.132172 242.084396,404.984100 242.138550,389.836029 
	C242.147324,387.382935 242.592575,385.195618 238.904144,384.403107 
	C235.882721,383.753845 235.198715,380.533966 235.256027,377.487244 
	C235.453201,367.009583 235.523087,356.528931 235.801147,346.053680 
	C235.888779,342.752167 235.488281,340.594452 231.322693,340.931824 
	C227.672073,341.227509 225.673187,338.928040 225.737396,335.404175 
	C225.801147,331.906403 227.881073,329.957520 231.484024,329.849701 
	C231.650406,329.844727 231.816910,329.839294 231.983322,329.839905 
	C245.070480,329.888214 247.458374,327.924591 246.967072,343.886719 
	C246.705948,352.369293 246.891495,360.864929 246.801987,369.353882 
	C246.777603,371.666412 246.863647,373.474396 249.798981,374.143951 
	C253.005951,374.875458 253.384155,377.785706 253.363968,380.540955 
	C253.309113,388.026611 253.324921,395.519348 252.980698,402.993988 
	C252.766174,407.652466 253.450577,411.886230 256.271118,415.688293 
	C257.058838,416.750122 257.884949,417.884430 258.284149,419.117950 
	C262.227386,431.302612 270.712250,434.259064 282.833466,433.121246 
	C294.879761,431.990509 307.115173,432.883423 319.267639,432.869537 
	C323.224548,432.865021 327.326080,432.684509 327.553680,438.259216 
	C327.721985,442.382263 325.270691,443.963104 318.971436,443.973450 
	C310.814331,443.986847 302.657135,443.977203 294.000000,443.977478 
z"/>
<path fill="#F16E08" opacity="1.000000" stroke="none" 
	d="
M61.444870,347.071014 
	C61.552876,343.255310 61.730694,339.928345 61.750122,336.600494 
	C61.772675,332.738739 63.104248,329.877869 67.415497,330.034515 
	C71.891098,330.197113 72.467133,333.520721 72.454971,337.154602 
	C72.418716,347.985046 72.528419,358.816803 72.392693,369.645630 
	C72.353470,372.775482 73.139839,374.181915 76.581810,374.042053 
	C79.630417,373.918121 80.112068,372.456390 80.104683,369.922211 
	C80.073639,359.259064 80.179787,348.595581 80.176857,337.932220 
	C80.175758,333.941315 80.851700,330.411438 85.720291,330.029144 
	C89.572983,329.726593 91.492561,332.600311 91.459717,338.178802 
	C91.351837,356.503906 91.360794,374.831116 91.041687,393.152588 
	C90.963921,397.617676 92.065872,399.732880 96.845398,399.047577 
	C98.623444,398.792633 100.560959,398.864807 102.299507,399.296387 
	C105.184334,400.012512 106.973129,402.036896 106.664444,405.128448 
	C106.362968,408.147675 104.488800,409.983093 101.357506,410.035614 
	C96.027153,410.125061 90.693901,410.112244 85.362740,410.057434 
	C81.628494,410.019043 79.976082,407.842316 79.969315,404.298157 
	C79.959457,399.133514 79.933441,393.965179 80.114433,388.805450 
	C80.212906,385.998291 79.203812,384.875458 76.362305,385.068329 
	C73.708771,385.248413 71.030685,385.171143 68.367523,385.082916 
	C63.248844,384.913391 61.499928,383.216156 61.459373,378.051483 
	C61.379574,367.888031 61.441414,357.723480 61.444870,347.071014 
z"/>
<path fill="#EB6B07" opacity="1.000000" stroke="none" 
	d="
M208.055038,356.000519 
	C208.057495,349.179688 208.066238,342.858856 208.059616,336.538055 
	C208.055847,332.938507 209.358459,330.202484 213.308273,330.019104 
	C217.578247,329.820831 219.265594,332.753784 219.283112,336.446411 
	C219.334412,347.252472 219.159027,358.060211 219.003662,368.866302 
	C218.965607,371.511658 218.992096,373.638031 222.476776,374.279022 
	C225.146973,374.770203 225.687164,377.388062 225.682159,379.847778 
	C225.643005,399.141724 225.584549,418.435608 225.525131,437.729523 
	C225.513779,441.415924 223.903900,443.983398 220.019424,444.033508 
	C215.889099,444.086761 214.204987,441.512909 214.214645,437.544708 
	C214.253479,421.576477 214.244690,405.608185 214.264633,389.639893 
	C214.267517,387.331482 214.656067,385.221466 211.247925,384.481873 
	C208.585892,383.904205 207.833145,381.192200 207.873886,378.451874 
	C207.982697,371.135498 208.000763,363.817749 208.055038,356.000519 
z"/>
<path fill="#F1F1F1" opacity="1.000000" stroke="none" 
	d="
M124.229744,117.114212 
	C140.281128,122.769264 154.696732,131.274612 170.349167,136.969391 
	C173.256165,138.027023 176.496323,139.629532 179.443634,141.293869 
	C182.370651,142.946762 183.711472,144.774933 182.536942,147.495743 
	C181.195358,150.603531 178.697174,149.344986 176.247971,148.269363 
	C166.230942,143.870239 156.084946,139.764587 146.070984,135.358719 
	C132.843018,129.538757 119.705315,123.514015 106.507645,117.624725 
	C97.727043,113.706482 89.019112,109.586838 80.057655,106.130280 
	C76.152267,104.623909 77.792831,102.095505 78.173485,100.138695 
	C78.650055,97.688858 80.673599,97.801842 82.840584,98.719391 
	C89.902214,101.709473 97.314651,104.140678 104.095467,107.440948 
	C110.656860,110.634422 117.702209,112.939720 124.229744,117.114212 
z"/>
<path fill="#F2F2F2" opacity="1.000000" stroke="none" 
	d="
M461.010071,96.111290 
	C450.103027,100.529335 439.568329,104.877892 428.910797,108.900963 
	C418.051727,113.000084 407.373352,117.556442 396.504333,121.642548 
	C390.971680,123.722511 385.329285,125.850487 379.926147,128.387756 
	C377.692871,129.436478 375.582855,129.162064 375.127747,126.959572 
	C374.748352,125.123924 373.117493,122.644638 377.079987,121.043472 
	C389.958679,115.839462 402.882751,110.770378 415.817657,105.708145 
	C428.711029,100.662170 441.273163,94.768738 454.467651,90.455780 
	C455.486023,90.122910 456.174774,88.647888 457.176849,88.425644 
	C459.512878,87.907532 462.460144,86.881157 463.862976,89.641998 
	C465.148773,92.172462 464.870300,94.909103 461.010071,96.111290 
z"/>
<path fill="#F1F1F1" opacity="1.000000" stroke="none" 
	d="
M128.880768,262.945831 
	C126.502525,266.389221 122.575859,265.482666 119.710335,267.000610 
	C119.558678,267.080933 116.251495,266.610870 116.237991,264.412140 
	C116.226982,262.621521 115.278137,260.618958 117.953003,259.351471 
	C125.920067,255.576218 133.795761,251.597260 141.603943,247.501144 
	C147.582382,244.364868 153.364212,240.855911 159.306381,237.647736 
	C165.620377,234.238846 172.031738,231.010788 178.378250,227.661469 
	C181.948105,225.777512 185.468903,223.800781 189.019424,221.879959 
	C191.266739,220.664169 193.626099,220.251068 195.088577,222.778275 
	C196.394440,225.034821 195.963272,227.434586 193.463211,228.746567 
	C185.932846,232.698380 178.135590,236.181793 170.817383,240.485519 
	C164.518921,244.189529 157.941315,247.293701 151.523438,250.730423 
	C144.072372,254.720413 136.606430,258.682556 128.880768,262.945831 
z"/>
<path fill="#ED6908" opacity="1.000000" stroke="none" 
	d="
M390.036316,254.740387 
	C382.215759,250.832245 374.756989,247.028748 367.329742,243.164627 
	C358.224396,238.427460 348.769501,234.378250 339.998779,228.964813 
	C337.964264,227.709091 336.482208,226.567123 337.743530,224.427216 
	C338.935547,222.404785 340.413605,220.098907 343.701385,221.901672 
	C348.719696,224.653290 353.914490,227.054886 358.901062,229.906509 
	C364.917267,233.346985 371.355286,236.042068 377.544708,239.189560 
	C385.831970,243.403900 394.087830,247.683105 402.286896,252.065887 
	C404.632538,253.319748 404.769409,255.932755 403.533539,257.687012 
	C401.715485,260.267639 398.603088,259.320587 396.222900,258.529053 
	C394.108459,257.825928 392.335693,256.095245 390.036316,254.740387 
z"/>
<path fill="#F3F3F3" opacity="1.000000" stroke="none" 
	d="
M362.764008,207.089142 
	C356.754181,204.842957 350.703400,206.179459 344.954987,204.731644 
	C341.993103,203.985641 339.784790,203.677094 340.163116,200.049759 
	C340.546234,196.376236 343.387756,196.559891 345.787140,196.879639 
	C358.847168,198.620010 371.826935,200.823380 384.952484,202.257980 
	C394.133911,203.261505 403.259064,205.252441 412.554901,205.797058 
	C415.415405,205.964630 415.701111,208.022263 415.848358,210.404831 
	C416.034363,213.414749 414.331024,213.747284 412.119446,213.498398 
	C404.651794,212.657898 397.041077,212.383713 389.778961,210.656891 
	C384.476105,209.395950 379.097900,210.027725 373.814697,208.575592 
	C370.500275,207.664612 366.670349,208.264023 362.764008,207.089142 
z"/>
<path fill="#F2F2F2" opacity="1.000000" stroke="none" 
	d="
M59.966728,163.530518 
	C69.088554,164.730026 77.724258,166.739548 86.394531,166.901779 
	C94.850792,167.059982 102.813400,170.031418 111.201660,169.923218 
	C113.840714,169.889175 116.360458,170.407501 118.960022,170.958725 
	C122.286743,171.664124 121.094688,173.745499 121.274590,175.455750 
	C121.556534,178.136200 119.561729,177.701736 117.932213,177.720917 
	C107.588943,177.842651 97.573822,175.257446 87.393547,174.036301 
	C82.180466,173.410965 76.956604,173.874344 71.672432,172.763031 
	C64.042953,171.158478 56.159458,170.647186 48.355682,170.034790 
	C44.520550,169.733841 46.099205,167.148987 45.813129,165.346466 
	C45.459587,163.118805 46.260822,162.194031 48.800598,162.109833 
	C52.495972,161.987305 55.764870,164.443222 59.966728,163.530518 
z"/>
<path fill="#EF6B0A" opacity="1.000000" stroke="none" 
	d="
M405.409363,171.951385 
	C402.750336,170.098251 402.383789,167.713608 403.246460,165.208145 
	C404.215546,162.393723 406.846680,163.656326 408.816101,163.192566 
	C414.205536,161.923431 419.749634,162.004105 425.195251,160.779083 
	C433.314087,158.952698 441.820312,158.833191 449.923737,156.958710 
	C455.730621,155.615463 461.548218,155.241592 467.372437,154.505600 
	C470.340790,154.130508 471.021057,155.588455 470.978027,158.289764 
	C470.937927,160.809540 470.566864,161.984589 467.553223,162.382080 
	C457.042511,163.768372 446.644226,166.164886 436.107239,167.138138 
	C429.213287,167.774887 422.582794,169.925690 415.655243,169.987549 
	C412.242767,170.018036 409.507568,173.273117 405.409363,171.951385 
z"/>
<path fill="#EC6B08" opacity="1.000000" stroke="none" 
	d="
M164.035858,432.076538 
	C157.255264,424.547119 157.676025,415.723297 158.218109,406.904114 
	C158.410355,403.776489 160.378128,402.099152 163.397934,401.892303 
	C166.469223,401.681946 168.404327,403.305084 169.207535,406.247864 
	C169.380173,406.880371 169.558060,407.590424 169.442795,408.210724 
	C167.701736,417.580292 172.678360,424.787964 177.092987,432.180481 
	C177.603378,433.035126 178.149643,433.871643 178.607330,434.753906 
	C180.216583,437.855865 180.612900,440.891663 177.227295,443.046082 
	C173.666275,445.312103 170.834000,443.817200 168.794952,440.647522 
	C167.095642,438.006012 165.696182,435.171631 164.035858,432.076538 
z"/>
<path fill="#E56807" opacity="1.000000" stroke="none" 
	d="
M119.717117,443.488098 
	C117.072716,442.065033 116.195457,440.061310 116.200089,437.530975 
	C116.217140,428.218353 116.237457,418.905548 116.191536,409.593109 
	C116.172531,405.738342 118.163231,403.447662 121.801987,403.338867 
	C125.483505,403.228729 127.725960,405.601349 127.774643,409.303650 
	C127.901436,418.946991 128.032898,428.600494 127.711769,438.234924 
	C127.562469,442.714386 124.524376,444.527771 119.717117,443.488098 
z"/>
<path fill="#ED6A09" opacity="1.000000" stroke="none" 
	d="
M112.787598,227.822510 
	C105.235649,228.072189 98.779968,231.330673 91.828606,232.347458 
	C88.276253,232.867050 84.738396,233.490631 81.180138,233.962875 
	C79.350052,234.205750 77.815720,233.790222 77.812431,231.450851 
	C77.809692,229.496445 77.503517,227.960541 80.363503,227.036819 
	C88.450668,224.424774 96.836494,223.237289 105.026443,221.163773 
	C110.802063,219.701508 116.387764,217.353439 122.447502,217.127991 
	C125.027946,217.031982 127.874214,217.012802 127.802094,220.597931 
	C127.741203,223.624695 125.797905,225.463379 122.664223,225.307816 
	C119.199516,225.135849 116.327385,226.844040 112.787598,227.822510 
z"/>
<path fill="#EC6B0A" opacity="1.000000" stroke="none" 
	d="
M169.120239,177.536346 
	C172.720383,177.737213 175.873428,177.137268 178.992218,178.005249 
	C181.353897,178.662521 183.218307,179.224380 182.892242,182.502136 
	C182.550751,185.935211 180.324753,185.376358 178.245590,185.403610 
	C171.803116,185.488037 165.559372,184.647400 159.205658,183.177505 
	C152.863907,181.710403 146.078354,182.072403 139.480042,181.846848 
	C136.771530,181.754257 135.181595,181.174500 133.721497,178.405945 
	C131.865005,174.885742 133.958466,173.787064 136.109329,173.628830 
	C139.460571,173.382278 142.825684,173.023666 146.341888,174.375931 
	C151.091263,176.202454 156.445694,174.713242 161.515381,175.947739 
	C163.839951,176.513779 166.044189,178.148865 169.120239,177.536346 
z"/>
<path fill="#F5F5F5" opacity="1.000000" stroke="none" 
	d="
M189.605850,202.835129 
	C189.983749,204.045685 189.992050,205.053131 190.014603,206.438385 
	C185.580688,210.969040 179.492798,210.628693 174.201843,211.922806 
	C167.178406,213.640640 160.139877,215.475800 153.039108,216.960373 
	C150.528091,217.485352 147.960571,217.303070 145.451050,218.475464 
	C143.253220,219.502243 141.597275,217.077240 140.946838,215.467834 
	C140.024124,213.184723 142.340088,211.737244 144.031708,211.178406 
	C147.854813,209.915436 151.887024,209.302689 155.792389,208.267792 
	C163.533829,206.216309 171.573486,205.489914 179.133286,202.512527 
	C182.234726,201.291061 185.882614,201.287628 189.605850,202.835129 
z"/>
<path fill="#F2F2F2" opacity="1.000000" stroke="none" 
	d="
M377.038208,169.437347 
	C380.773743,168.961411 383.862396,167.222076 387.394318,167.212250 
	C389.639557,167.206009 390.568024,167.786758 390.093201,169.828308 
	C389.660828,171.687485 391.920532,174.440872 387.800354,175.193573 
	C375.253143,177.485794 362.431854,178.058304 350.041656,181.379318 
	C347.621521,182.027985 344.509094,182.137329 344.042816,178.239136 
	C343.607880,174.603317 345.656952,173.897614 348.834625,173.701172 
	C354.803558,173.332138 360.446777,171.077362 366.517395,170.595612 
	C369.862244,170.330185 373.382904,170.556931 377.038208,169.437347 
z"/>
<path fill="#F2F2F2" opacity="1.000000" stroke="none" 
	d="
M350.472717,264.585266 
	C345.878448,261.050751 341.821228,257.373016 337.259857,254.493927 
	C334.554260,252.786179 332.416595,250.409943 329.495422,248.863052 
	C327.482849,247.797302 325.923584,244.416077 328.256683,241.510025 
	C330.627869,238.556549 333.151703,240.884338 334.778168,242.039261 
	C342.743622,247.695465 350.459351,253.706482 358.199493,259.674927 
	C360.415802,261.383942 359.703583,263.826447 358.855591,265.838470 
	C357.991425,267.888916 356.481659,267.385986 354.848541,266.250061 
	C353.708527,265.457092 352.162445,265.247894 350.472717,264.585266 
z"/>
<path fill="#EA6A07" opacity="1.000000" stroke="none" 
	d="
M445.587158,428.557373 
	C446.663483,430.889984 447.612061,432.828522 448.646179,434.720337 
	C450.412628,437.951874 450.277313,440.868256 446.992645,442.957336 
	C443.612610,445.107056 441.034729,443.601288 438.894043,440.742126 
	C434.944977,435.467743 433.234283,429.643005 434.009094,423.018677 
	C434.417999,419.522644 436.003876,417.221954 439.505676,417.134094 
	C443.304016,417.038818 445.163177,419.458252 445.363037,423.157318 
	C445.452698,424.816559 445.455597,426.480499 445.587158,428.557373 
z"/>
<path fill="#EB6809" opacity="1.000000" stroke="none" 
	d="
M332.258453,144.815613 
	C332.236694,142.777573 331.877960,141.066376 334.008392,140.257706 
	C341.569092,137.387878 349.067627,134.349060 356.675873,131.614105 
	C358.114136,131.097092 359.292572,130.431793 360.551453,129.646378 
	C363.048065,128.088715 364.796509,129.132767 366.182861,131.587219 
	C367.621948,134.135010 366.496429,135.745193 364.394104,136.658905 
	C356.468231,140.103622 348.552063,143.615311 340.427094,146.529968 
	C337.999908,147.400681 334.538025,148.443558 332.258453,144.815613 
z"/>
<path fill="#EB6B07" opacity="1.000000" stroke="none" 
	d="
M391.050964,423.388428 
	C391.054840,428.147034 391.020416,432.450623 391.064270,436.753448 
	C391.104797,440.727386 389.793182,443.906555 385.347473,443.812927 
	C381.027985,443.721893 379.538696,440.568115 379.591797,436.615143 
	C379.649506,432.315643 379.856781,428.017365 379.869080,423.718231 
	C379.879242,420.170624 380.948090,417.348480 384.869263,416.979858 
	C388.989838,416.592529 390.946960,418.912262 391.050964,423.388428 
z"/>
<path fill="#EEEEEE" opacity="1.000000" stroke="none" 
	d="
M90.937668,273.964355 
	C92.307961,273.287018 93.358345,272.392120 94.368752,272.435181 
	C96.128975,272.510193 98.788254,270.981476 99.476570,273.610107 
	C100.061546,275.844116 100.455666,278.838013 97.391304,280.074036 
	C89.818108,283.128693 83.011688,287.610291 75.792236,291.306580 
	C73.970009,292.239563 70.378990,292.811249 69.229561,290.845093 
	C67.958603,288.671051 68.277107,285.710052 71.665672,284.086426 
	C78.086792,281.009674 84.300110,277.499268 90.937668,273.964355 
z"/>
<path fill="#F2F2F2" opacity="1.000000" stroke="none" 
	d="
M452.595490,276.454041 
	C454.715271,278.773712 454.886322,281.078522 453.057587,282.964966 
	C451.363800,284.712189 449.305634,283.960388 447.199005,282.977783 
	C439.355225,279.319244 431.423004,275.848907 423.501007,272.360077 
	C420.540985,271.056488 422.135773,268.581085 422.340973,266.855682 
	C422.589264,264.767944 424.669250,264.146118 426.619049,264.943146 
	C431.955841,267.124664 437.590790,268.881531 442.411438,271.913513 
	C445.619110,273.931000 449.511169,273.694305 452.595490,276.454041 
z"/>
<path fill="#E56807" opacity="1.000000" stroke="none" 
	d="
M98.143120,419.178406 
	C103.590202,417.914642 106.387215,419.680298 106.636345,424.528656 
	C106.865677,428.991608 106.771233,433.477020 106.671951,437.949280 
	C106.590080,441.637512 104.693489,444.017944 100.887871,444.000092 
	C97.049942,443.982086 95.280128,441.546661 95.238289,437.850342 
	C95.187653,433.376434 95.225502,428.901428 95.238304,424.426941 
	C95.244354,422.314178 95.920036,420.525146 98.143120,419.178406 
z"/>
<path fill="#E56807" opacity="1.000000" stroke="none" 
	d="
M89.691315,425.454285 
	C89.690323,429.875061 89.703911,433.851532 89.678574,437.827728 
	C89.654549,441.597809 87.671394,443.911255 83.986504,443.983063 
	C80.259613,444.055634 78.242973,441.769501 78.197411,437.987823 
	C78.147514,433.846344 78.286102,429.700256 78.145264,425.562866 
	C78.003647,421.402863 79.766426,418.533386 83.926674,418.450714 
	C87.833694,418.373108 89.818565,421.012695 89.691315,425.454285 
z"/>
<path fill="#EA6A07" opacity="1.000000" stroke="none" 
	d="
M71.037888,420.126953 
	C73.491104,426.872833 72.318909,433.510437 72.072479,440.063110 
	C71.976593,442.612854 69.713135,443.993073 67.098190,444.005768 
	C64.038589,444.020630 61.731560,442.401184 61.555065,439.405853 
	C61.234310,433.962494 61.083637,428.442627 61.639904,423.034668 
	C62.104046,418.522369 65.752998,417.492249 71.037888,420.126953 
z"/>
<path fill="#F0F0F0" opacity="1.000000" stroke="none" 
	d="
M439.600861,209.643295 
	C444.484985,210.316483 448.639709,212.496719 453.313232,212.181900 
	C455.928223,212.005768 457.845184,214.482834 457.664032,216.012421 
	C457.401764,218.226715 455.400421,220.330261 452.351013,219.903229 
	C446.442444,219.075821 440.814789,216.837479 434.637238,217.105667 
	C432.060150,217.217560 432.282501,214.097763 432.253448,211.921890 
	C432.217682,209.247498 434.108795,209.693512 435.700775,209.632751 
	C436.858398,209.588577 438.019135,209.625290 439.600861,209.643295 
z"/>
<path fill="#F1F1F1" opacity="1.000000" stroke="none" 
	d="
M205.839417,255.736115 
	C201.610443,259.627106 197.914383,263.642212 192.859329,266.120514 
	C190.339508,267.355865 189.057755,266.933258 187.486710,265.025208 
	C185.421158,262.516663 187.706940,260.815552 188.900131,259.682434 
	C192.064987,256.676788 195.672668,254.126663 199.180359,251.496902 
	C201.217529,249.969635 203.579987,250.095535 205.658752,251.253662 
	C207.502197,252.280701 207.233139,253.900696 205.839417,255.736115 
z"/>
<path fill="#EC6B0A" opacity="1.000000" stroke="none" 
	d="
M178.126083,269.921082 
	C182.295105,274.275787 182.112717,276.498108 177.330276,279.462769 
	C175.331909,280.701599 173.788544,282.364655 172.016754,283.803497 
	C169.683762,285.698151 166.742783,286.257629 164.410980,284.001678 
	C161.698776,281.377655 164.265427,279.411926 166.113586,277.985352 
	C169.866913,275.088196 172.502335,270.533051 178.126083,269.921082 
z"/>
<path fill="#EA6408" opacity="1.000000" stroke="none" 
	d="
M378.680664,286.637756 
	C374.349091,285.941345 371.241058,283.503906 368.325500,280.998413 
	C366.191101,279.164185 366.204071,276.250854 368.030762,274.282715 
	C369.754517,272.425568 372.430206,272.601776 374.198608,274.505554 
	C375.484802,275.890289 377.035919,276.707611 378.526031,277.662506 
	C382.590332,280.266998 382.783051,282.862915 378.680664,286.637756 
z"/>
<path fill="#AC2200" opacity="1.000000" stroke="none" 
	d="
M214.914276,122.688354 
	C211.043488,123.063820 206.980606,123.039284 202.451721,123.027161 
	C206.126450,121.012665 210.460617,122.266068 214.914276,122.688354 
z"/>
<path fill="#FFFCF8" opacity="1.000000" stroke="none" 
	d="
M257.029175,186.666199 
	C255.189819,189.538086 253.662292,192.319382 252.941650,195.426071 
	C252.313309,198.134842 252.881393,200.578491 255.757599,201.562057 
	C258.700195,202.568314 261.050537,201.497177 262.167725,198.498596 
	C267.534424,184.094284 278.195465,176.497391 293.111145,174.429855 
	C296.434875,173.969147 298.737213,172.373932 299.779877,169.245132 
	C300.937592,165.770950 300.152618,162.522293 297.434845,160.123993 
	C294.951385,157.932480 292.059418,156.210678 289.417786,154.189987 
	C285.021973,150.827423 283.433044,146.117844 285.001709,141.508011 
	C286.024292,138.502960 287.844177,137.381577 290.651062,139.329788 
	C296.799377,143.597290 302.981567,147.829315 308.935455,152.357803 
	C311.784271,154.524582 313.509735,157.811539 313.782959,161.397705 
	C314.618195,172.360428 315.423584,183.445343 312.775238,194.205170 
	C307.522766,215.545044 290.457672,230.202057 268.512054,232.207733 
	C257.086609,233.251938 245.562729,233.372818 234.114166,231.955887 
	C216.233368,229.742889 201.429459,213.736084 200.699158,195.752792 
	C200.456070,189.766953 200.711319,183.761734 200.512085,177.772903 
	C200.399155,174.378296 201.654022,173.409607 204.949722,173.973099 
	C209.335205,174.722946 213.600418,174.022980 217.426208,171.588654 
	C219.025955,170.570740 220.331802,170.524078 221.942734,171.715576 
	C228.927811,176.881851 236.131027,176.696793 243.310013,172.134674 
	C244.808044,171.182693 245.986969,171.076935 247.346024,172.188080 
	C251.421738,175.520233 256.197327,175.643860 261.557281,175.068176 
	C263.562927,174.076279 264.246552,174.828354 264.448303,176.763748 
	C263.916656,177.578445 263.487396,177.946106 262.878235,178.532074 
	C262.633881,178.996094 262.569427,179.241791 262.149597,179.624756 
	C261.522827,179.947327 261.281616,180.165878 260.935486,180.621735 
	C260.739197,181.157806 260.585663,181.439529 260.141174,181.812363 
	C259.340607,182.753937 258.738770,183.554138 258.001373,184.622925 
	C257.566437,185.403015 257.505341,185.997467 257.029175,186.666199 
z"/>
<path fill="#FFFCF7" opacity="1.000000" stroke="none" 
	d="
M225.551971,265.796814 
	C236.252838,254.064102 250.197876,249.857132 264.702209,247.073334 
	C272.360321,245.603500 280.145508,244.831070 287.986572,244.728119 
	C291.018433,244.688293 292.127380,245.720612 292.090210,248.742493 
	C291.977814,257.884033 291.698395,267.047302 292.193634,276.163544 
	C292.483673,281.502930 290.113312,283.096863 285.525452,283.850922 
	C271.842072,286.099884 258.112518,286.537018 244.301376,285.612701 
	C238.324097,285.212646 232.409744,284.535004 226.558563,283.186035 
	C223.815414,282.553619 222.563278,281.198883 222.755234,278.358917 
	C223.040421,274.139679 221.709274,269.607269 225.551971,265.796814 
z"/>
<path fill="#FFF6EA" opacity="1.000000" stroke="none" 
	d="
M234.542542,125.194717 
	C239.238495,126.761238 240.561996,130.239716 240.623474,134.313217 
	C240.736603,141.807220 240.778793,149.306885 240.612961,156.798935 
	C240.492950,162.220566 236.969498,166.010162 232.611603,165.900940 
	C228.291046,165.792648 225.301865,162.329956 225.214401,156.896454 
	C225.091095,149.236130 225.078766,141.570404 225.218597,133.910614 
	C225.330490,127.780617 227.898727,125.396812 234.542542,125.194717 
z"/>
<path fill="#FFFEFB" opacity="1.000000" stroke="none" 
	d="
M261.669708,120.742035 
	C262.370209,121.044411 262.640900,121.203995 263.022156,121.611221 
	C264.560150,123.751038 265.042755,125.910660 265.025024,128.315903 
	C264.956848,137.550873 264.976685,146.786804 265.010071,156.022156 
	C265.019897,158.742844 264.640106,161.283218 262.368713,163.706573 
	C262.058167,164.063034 262.001221,164.000610 262.028870,164.031494 
	C260.112549,165.316650 257.923828,164.926376 255.401672,164.988770 
	C253.629700,164.802338 252.737442,163.948730 251.875412,162.573105 
	C250.470383,160.183563 251.398300,157.742630 250.550964,155.199493 
	C250.354813,146.918991 250.312546,138.988876 250.332947,130.604736 
	C251.557526,128.030014 250.507812,125.573296 251.577972,123.066292 
	C251.736771,122.718018 251.868484,122.364532 251.983490,122.215042 
	C254.868668,119.820084 257.955780,119.478874 261.669708,120.742035 
z"/>
<path fill="#FFF5EA" opacity="1.000000" stroke="none" 
	d="
M215.019897,159.626373 
	C212.846085,163.546783 209.972809,165.398651 205.815018,164.153717 
	C201.721756,162.928131 200.151764,159.980911 200.276230,155.795303 
	C200.419342,150.983063 200.227051,146.161377 200.340515,141.347565 
	C200.455582,136.465607 203.040268,133.657394 207.416977,133.362503 
	C211.614609,133.079697 215.336517,135.891632 215.538162,140.397964 
	C215.818710,146.667099 216.320938,152.990341 215.019897,159.626373 
z"/>
<path fill="#FFF3E5" opacity="1.000000" stroke="none" 
	d="
M289.641663,127.285156 
	C284.018768,128.620407 279.243774,130.633163 275.813141,135.746002 
	C275.013000,130.413010 274.027985,125.225365 275.866669,120.267532 
	C277.098328,116.946381 280.075562,115.049637 283.887177,115.715309 
	C287.862274,116.409531 289.865112,119.101463 290.203735,123.003906 
	C290.316284,124.300781 290.006836,125.634270 289.641663,127.285156 
z"/>
<path fill="#FDD0A5" opacity="1.000000" stroke="none" 
	d="
M262.419556,164.008240 
	C264.317444,160.557602 264.150909,156.628250 264.125488,152.693710 
	C264.072266,144.451782 264.159210,136.208633 264.060242,127.967522 
	C264.038971,126.195343 263.474121,124.429695 263.164307,122.229294 
	C265.528412,122.607780 265.816010,124.724411 265.833954,126.662643 
	C265.930878,137.117905 265.961945,147.575714 265.813080,158.029770 
	C265.780762,160.299454 265.173035,162.690247 262.419556,164.008240 
z"/>
<path fill="#FEE1C1" opacity="1.000000" stroke="none" 
	d="
M282.898773,161.359970 
	C284.480286,162.462494 285.833893,163.425873 284.684967,165.156189 
	C283.823639,166.453323 282.314941,166.141632 281.038788,165.805618 
	C278.509033,165.139557 276.453156,163.641907 275.511078,161.221191 
	C274.695526,159.125565 273.753448,156.115509 275.758118,154.850281 
	C277.621063,153.674545 278.017426,157.017609 279.376740,158.044113 
	C280.555664,158.934418 281.543121,160.078308 282.898773,161.359970 
z"/>
<path fill="#FBB474" opacity="1.000000" stroke="none" 
	d="
M264.677246,177.151230 
	C264.104462,176.285492 263.843353,175.376892 262.341370,175.125916 
	C262.383026,174.682480 262.703766,174.190765 263.134552,174.059067 
	C265.590271,173.308456 269.119049,169.889404 269.966614,171.595367 
	C271.475281,174.631851 266.570465,174.991898 264.677246,177.151230 
z"/>
<path fill="#FDD0A5" opacity="1.000000" stroke="none" 
	d="
M261.905457,120.598274 
	C258.956512,120.820892 255.846878,120.672371 252.504547,122.038849 
	C254.629272,117.816124 258.000702,118.035553 261.905457,120.598274 
z"/>
<path fill="#FDD0A5" opacity="1.000000" stroke="none" 
	d="
M251.390625,122.894890 
	C251.787277,125.110298 252.439804,127.560822 250.722961,129.982239 
	C249.641418,127.702080 249.386642,125.299263 251.390625,122.894890 
z"/>
<path fill="#FDD0A5" opacity="1.000000" stroke="none" 
	d="
M250.213974,155.245270 
	C252.984070,156.571426 251.401062,159.232697 251.807648,161.859299 
	C248.931091,160.646851 250.105789,157.983826 250.213974,155.245270 
z"/>
<path fill="#FDD0A5" opacity="1.000000" stroke="none" 
	d="
M255.226730,165.286545 
	C256.884033,163.455643 259.169250,164.489410 261.637024,164.036484 
	C260.318848,166.576141 257.983673,166.504883 255.226730,165.286545 
z"/>
<path fill="#FBB474" opacity="1.000000" stroke="none" 
	d="
M257.051514,186.679169 
	C256.949799,186.242432 257.133606,185.691528 257.591644,185.016068 
	C257.689575,185.449326 257.513306,186.007156 257.051514,186.679169 
z"/>
<path fill="#FBB474" opacity="1.000000" stroke="none" 
	d="
M260.199646,181.872528 
	C260.065186,181.640808 260.187897,181.327896 260.555542,180.920395 
	C260.685913,181.147644 260.571381,181.469482 260.199646,181.872528 
z"/>
<path fill="#FBB474" opacity="1.000000" stroke="none" 
	d="
M262.057220,179.720825 
	C261.794983,179.403687 261.940613,179.119537 262.464661,178.829956 
	C262.572296,179.060135 262.446289,179.369888 262.057220,179.720825 
z"/>
<path fill="#140901" opacity="1.000000" stroke="none" 
	d="
M433.855774,366.965881 
	C434.992523,375.239471 434.992523,375.239594 427.052856,375.240601 
	C425.559540,375.240784 424.051910,375.106842 422.575806,375.266144 
	C419.125305,375.638489 417.947449,374.267700 417.954895,370.756714 
	C417.962433,367.199646 419.282959,366.001038 422.661194,366.249817 
	C426.284058,366.516571 429.924744,366.541595 433.855774,366.965881 
z"/>
<path fill="#190B01" opacity="1.000000" stroke="none" 
	d="
M418.938721,386.954407 
	C423.254486,386.582764 427.223053,386.532135 431.185944,386.354340 
	C433.953888,386.230103 434.697266,387.810150 434.447876,390.108826 
	C434.219055,392.218201 435.091583,395.139740 431.372375,395.171417 
	C429.217896,395.189758 427.063202,395.189331 424.908600,395.188354 
	C417.358856,395.184967 417.194092,394.975739 418.938721,386.954407 
z"/>
<path fill="#1D0D01" opacity="1.000000" stroke="none" 
	d="
M167.375244,381.418030 
	C161.780930,382.626099 156.478302,381.959503 151.195801,382.131042 
	C149.093033,382.199371 148.185013,381.102539 148.300430,379.056244 
	C148.319046,378.725983 148.308197,378.393188 148.295807,378.062164 
	C147.715454,362.547729 149.939346,360.640381 165.648621,362.983887 
	C167.410965,363.246796 168.426575,363.810516 168.340500,365.731689 
	C168.111221,370.848694 167.914093,375.967163 167.375244,381.418030 
z"/>
<path fill="#1B0C01" opacity="1.000000" stroke="none" 
	d="
M117.791298,371.891632 
	C118.139732,363.009094 118.139732,363.009094 126.555527,363.008942 
	C137.112305,363.008759 137.153458,363.008972 137.100113,373.464264 
	C137.050186,383.250671 138.310135,382.053375 128.238876,382.148010 
	C128.072510,382.149567 127.906120,382.148193 127.739746,382.148193 
	C117.778809,382.148346 117.778809,382.148346 117.791298,371.891632 
z"/>
<path fill="#230F01" opacity="1.000000" stroke="none" 
	d="
M299.946838,350.133209 
	C295.550232,350.698090 294.824432,348.646423 294.812164,345.155792 
	C294.799652,341.579681 296.470245,340.978729 299.426422,341.135681 
	C302.084900,341.276794 304.892914,340.632080 304.764984,344.934509 
	C304.671906,348.065186 304.700775,350.769470 299.946838,350.133209 
z"/>
<path fill="#190B01" opacity="1.000000" stroke="none" 
	d="
M294.952362,366.048981 
	C294.350555,360.868683 297.601929,361.284058 300.666351,361.229431 
	C303.230804,361.183685 304.964813,361.819824 304.533661,364.818573 
	C304.239410,366.864899 305.582947,370.109100 301.818207,369.982208 
	C299.204041,369.894073 294.933563,372.087708 294.952362,366.048981 
z"/>
<path fill="#E56807" opacity="1.000000" stroke="none" 
	d="
M152.934631,372.213409 
	C154.238968,367.728241 156.888809,366.063782 160.918320,367.869110 
	C163.483627,369.018463 164.375885,371.398895 163.693771,374.151398 
	C162.982224,377.022675 160.825165,378.231506 158.087097,378.067688 
	C154.827484,377.872711 152.883469,376.094696 152.934631,372.213409 
z"/>
<path fill="#DE6507" opacity="1.000000" stroke="none" 
	d="
M124.032593,377.333740 
	C121.744331,375.292328 120.652840,373.138641 121.988411,370.533875 
	C123.001335,368.558350 124.533363,367.058228 127.031540,367.171295 
	C129.360153,367.276672 131.072647,368.276825 132.140335,370.438110 
	C133.154266,372.490601 132.685135,374.545197 131.514709,376.051666 
	C129.723846,378.356750 127.104401,378.720642 124.032593,377.333740 
z"/>
</svg>